<?xml version="1.0" standalone="no"?>
<!DOCTYPE svg PUBLIC "-//W3C//DTD SVG 20010904//EN"
 "http://www.w3.org/TR/2001/REC-SVG-20010904/DTD/svg10.dtd">
<svg version="1.0" xmlns="http://www.w3.org/2000/svg"
 width="1024.000000pt" height="768.000000pt" viewBox="0 0 1024.000000 768.000000"
 preserveAspectRatio="xMidYMid meet">

<g transform="translate(0.000000,768.000000) scale(0.100000,-0.100000)"
fill="#000000" stroke="none">
<path d="M2857 6464 c-4 -4 -7 -43 -7 -87 l0 -80 -37 7 c-223 38 -437 56 -700
56 l-173 0 0 -100 0 -100 -26 0 c-40 0 -136 -56 -194 -113 -52 -52 -102 -136
-114 -192 -6 -29 -5 -31 36 -42 86 -23 83 -12 68 -246 -7 -113 -16 -211 -20
-216 -3 -6 -40 -20 -82 -30 -93 -24 -178 -63 -223 -103 -32 -28 -62 -89 -52
-105 11 -17 -18 -605 -49 -998 -71 -921 -241 -2042 -428 -2807 l-23 -98 1002
0 1002 0 7 60 7 60 3197 0 3197 0 51 30 c41 23 58 41 78 82 l26 52 0 1625 c0
1551 -1 1628 -19 1666 -23 51 -79 101 -128 114 -26 8 -955 11 -2970 11 -1628
0 -2933 4 -2933 9 0 4 -18 28 -39 53 -43 48 -135 102 -192 113 l-36 7 -6 74
c-7 71 -14 94 -59 177 -16 30 -21 63 -25 160 -3 67 -10 128 -16 135 -10 13
-53 17 -61 4 -2 -4 -8 -94 -12 -200 l-7 -193 -56 3 -56 3 -7 158 c-6 143 -9
162 -30 193 -42 62 -58 52 -102 -66 -39 -102 -82 -182 -116 -215 -37 -35 -70
-28 -121 25 -35 36 -36 40 -42 136 -4 55 -7 129 -7 167 l0 67 -49 0 -49 0 6
-170 c5 -183 2 -200 -45 -200 -31 0 -72 21 -101 52 -22 24 -22 29 -20 223 l3
199 42 32 c89 68 282 107 424 85 211 -32 382 -105 484 -207 65 -65 98 -78 134
-55 21 13 -2 88 -51 162 l-38 60 0 139 c0 158 2 154 -106 205 l-53 25 -3 98
-3 97 -35 3 c-20 2 -39 0 -43 -4z m-697 -234 l0 -80 -80 0 -80 0 0 80 0 80 80
0 80 0 0 -80z m225 -15 l0 -90 -80 4 c-44 2 -83 5 -87 8 -5 2 -8 42 -8 89 l0
85 88 -3 87 -3 0 -90z m171 75 l34 0 0 -94 0 -94 -47 5 c-27 2 -63 6 -80 9
l-33 5 0 91 0 91 46 -7 c26 -3 62 -6 80 -6z m225 -47 c5 -5 9 -43 7 -84 l-3
-74 -45 2 c-25 2 -60 5 -77 8 l-33 6 0 83 c0 45 2 85 5 88 8 8 134 -17 146
-29z m122 -27 l57 -17 0 -75 0 -76 -27 6 c-16 3 -45 8 -65 12 l-38 6 0 85 c0
46 3 82 8 80 4 -3 33 -12 65 -21z m157 -131 c0 -36 -2 -65 -4 -65 -3 0 -16 4
-30 10 -25 9 -26 14 -26 80 l0 71 30 -16 c29 -15 30 -18 30 -80z m-1430 -859
l0 -64 -49 -21 c-27 -11 -55 -21 -61 -21 -7 0 -10 23 -8 66 l3 66 45 18 c70
28 70 28 70 -44z m-150 -66 c0 -59 -1 -60 -41 -85 -69 -44 -69 -44 -69 23 l0
60 48 35 c26 19 50 32 55 30 4 -2 7 -31 7 -63z m1388 4 c29 -12 33 -17 30 -46
-2 -18 -6 -32 -10 -30 -5 1 -39 2 -78 2 l-70 0 0 51 0 50 48 -7 c26 -3 62 -13
80 -20z m312 -168 c0 -78 -10 -85 -103 -69 -35 5 -38 8 -34 32 15 74 22 81 82
81 l55 0 0 -44z m-425 -101 c111 -18 223 -55 284 -94 90 -58 171 -163 171
-221 -1 -49 -106 -445 -118 -444 -7 1 -30 2 -52 3 l-40 1 0 100 c0 98 0 100
-25 106 l-25 6 0 128 0 129 -27 19 c-16 11 -38 23 -50 26 l-23 7 0 -235 0
-236 -62 1 c-35 0 -101 10 -148 22 l-85 22 -3 255 c-2 188 -6 256 -15 262 -14
9 -63 10 -94 2 -23 -6 -23 -6 -23 -234 l0 -228 -23 -6 c-13 -3 -36 -2 -52 3
l-30 7 -3 236 c-3 261 -1 255 -68 242 l-34 -6 -2 -267 -3 -266 -29 -3 c-16 -2
-45 -1 -64 3 l-35 6 7 312 c4 171 8 313 10 314 4 4 157 30 206 36 95 10 372 6
455 -8z m5298 -123 l46 -47 -52 -41 c-28 -22 -80 -62 -115 -89 l-63 -49 -29
30 -29 29 91 108 c50 59 94 107 98 107 3 0 27 -21 53 -48z m-6055 -289 l2
-243 -79 0 c-48 0 -83 4 -87 11 -3 6 -9 80 -12 163 -6 180 5 241 50 287 27 26
37 30 77 27 l46 -3 3 -242z m2284 203 c65 -24 142 -96 164 -151 24 -63 16
-142 -20 -194 -61 -87 -163 -132 -316 -138 -58 -2 -120 -6 -137 -9 l-32 -5 -3
-157 -3 -157 -107 -3 -108 -3 0 421 0 421 258 -3 c216 -4 265 -7 304 -22z
m440 13 c41 -11 53 -33 51 -100 -1 -57 -17 -77 -69 -85 -57 -8 -122 0 -141 19
-8 7 -17 39 -20 69 -5 52 -4 56 23 75 51 35 90 41 156 22z m2153 -268 c36 -18
78 -48 95 -69 39 -48 70 -131 73 -196 l2 -51 -242 -3 c-134 -1 -243 -6 -243
-10 0 -20 37 -56 74 -73 60 -27 132 -25 192 7 47 25 50 25 126 14 55 -9 78
-17 78 -26 0 -23 -87 -104 -134 -124 -70 -32 -176 -45 -253 -32 -190 32 -315
165 -300 322 6 69 26 111 81 168 76 81 167 113 299 108 74 -3 98 -8 152 -35z
m787 24 c15 -6 14 -13 -9 -80 l-25 -74 -98 2 c-86 2 -102 -1 -127 -19 -55 -40
-63 -72 -63 -251 l0 -163 -100 0 -100 0 0 295 0 295 100 0 100 0 0 -32 c0 -30
0 -31 20 -13 40 36 119 56 205 51 44 -2 87 -7 97 -11z m968 -4 c30 -6 81 -14
113 -17 l57 -5 0 -280 0 -279 -100 0 -100 0 0 25 c0 30 3 30 -44 5 -136 -69
-316 -35 -420 81 -107 119 -100 276 17 386 61 58 78 68 149 88 59 17 232 14
328 -4z m-3870 -286 l0 -296 -102 3 -103 3 -3 293 -2 292 105 0 105 0 0 -295z
m800 290 c0 -2 -86 -100 -192 -217 l-192 -213 172 -3 172 -2 0 -75 0 -75 -360
0 c-198 0 -360 2 -360 5 0 4 86 101 190 218 l191 212 -151 3 -150 3 0 74 0 75
340 0 c187 0 340 -2 340 -5z m692 -62 c-33 -38 -121 -135 -195 -218 l-134
-150 173 -3 174 -2 0 -75 0 -75 -360 0 c-198 0 -360 4 -360 8 0 4 85 103 190
220 l190 211 -153 3 -152 3 -3 73 -3 72 347 0 346 0 -60 -67z m1726 -225 l-3
-293 -102 -3 -103 -3 0 296 0 295 105 0 105 0 -2 -292z m-5253 -27 c184 -14
281 -60 354 -166 31 -47 33 -54 28 -110 -3 -33 -13 -77 -21 -97 -16 -37 -61
-77 -73 -65 -3 4 -5 46 -4 94 2 94 -3 123 -24 123 -11 0 -24 -39 -61 -192 -16
-64 -18 -68 -45 -68 l-29 0 0 108 c0 59 -3 131 -7 160 -5 47 -8 53 -27 50 -17
-2 -22 -12 -28 -58 -8 -69 -8 -253 1 -345 l6 -70 29 3 c69 9 168 -45 201 -107
12 -24 12 -36 -1 -87 -9 -32 -17 -61 -19 -62 -2 -2 -68 28 -147 66 -153 75
-243 109 -323 120 l-50 7 -6 105 c-4 58 -7 179 -8 270 -2 215 -1 212 -64 208
l-49 -3 3 -195 c2 -107 3 -237 4 -289 l0 -95 -60 3 c-33 1 -61 4 -62 5 -2 1
-8 126 -13 277 -6 151 -13 280 -15 287 -3 8 -16 12 -32 10 l-28 -3 0 -288 1
-289 -206 4 c-113 1 -268 1 -345 -2 l-140 -4 0 74 0 75 80 6 c44 3 104 9 133
14 l52 7 0 162 c0 178 3 187 64 225 18 12 50 21 69 21 l37 0 2 -187 3 -188 29
-3 28 -4 -3 244 -4 243 35 6 c55 10 601 9 735 0z m6603 -1538 l-3 -1108 -24
-34 c-47 -66 221 -61 -3272 -61 l-3181 0 6 85 c3 47 9 124 12 171 6 73 9 84
23 78 40 -16 51 -16 51 0 0 33 -21 55 -83 90 -195 109 -439 174 -710 192
l-107 6 2 312 3 311 55 0 55 0 7 -249 c4 -137 11 -253 16 -258 5 -5 22 -10 38
-11 l29 -2 5 260 5 260 55 0 55 0 3 -255 c2 -188 6 -256 15 -262 6 -4 27 -8
44 -8 l33 0 2 233 c3 226 4 232 23 229 32 -5 110 -46 109 -57 -1 -5 -5 -108
-9 -228 l-7 -217 37 -16 c20 -8 56 -14 78 -12 l42 3 3 168 c1 92 6 167 10 167
17 0 72 -67 92 -112 11 -26 29 -80 39 -120 22 -86 25 -78 42 95 l12 127 26 -2
c21 -3 27 2 29 23 2 21 -8 35 -60 78 -117 97 -315 178 -530 217 l-89 17 7 71
c3 39 16 190 28 336 l21 265 65 3 c85 4 197 -21 290 -65 92 -44 184 -132 225
-216 28 -57 28 -59 21 -190 -4 -73 -10 -154 -13 -181 -5 -38 -3 -48 7 -44 10
3 22 65 42 199 15 107 27 198 28 203 0 6 13 -3 30 -19 24 -23 32 -26 45 -15 8
7 15 27 15 45 0 26 -8 38 -35 59 -21 17 -35 36 -35 49 0 22 65 431 75 475 l5
22 3100 0 3100 0 -2 -1107z m-7062 784 c4 -4 -16 -609 -21 -624 -3 -8 -22 -13
-49 -13 -78 0 -76 -4 -75 144 1 248 15 488 30 498 12 8 106 4 115 -5z m-238
-43 l22 -6 0 -268 0 -268 -22 -6 c-13 -3 -39 -6 -58 -6 -19 0 -45 3 -57 6
l-23 6 0 268 c0 205 3 270 13 273 17 8 98 8 125 1z m-250 -157 c19 -23 73
-231 75 -289 2 -50 -2 -61 -23 -83 -31 -31 -133 -55 -238 -55 l-73 0 3 78 3
77 72 3 72 3 3 127 c3 124 4 127 28 139 32 16 65 16 78 0z m172 -827 l0 -300
-78 0 -79 0 -6 137 c-4 75 -7 196 -7 268 0 115 2 134 18 148 23 21 89 45 125
46 l27 1 0 -300z m-254 98 l29 -13 3 -184 c2 -122 -1 -188 -8 -195 -12 -12
-131 -13 -174 -2 l-26 6 2 188 3 187 35 18 c38 20 89 18 136 -5z m574 -522
c256 -31 433 -84 538 -163 35 -27 39 -47 26 -172 -6 -49 -10 -61 -23 -59 -8 2
-18 18 -22 35 -9 45 -34 80 -69 98 l-30 16 0 -105 0 -105 -32 -9 c-18 -5 -44
-6 -58 -2 -25 6 -25 7 -28 143 l-3 137 -44 0 -45 0 0 -125 c0 -117 -1 -125
-19 -125 -45 0 -51 9 -51 82 0 76 -15 116 -54 142 -14 9 -28 16 -31 16 -3 0
-5 -81 -5 -180 0 -178 0 -181 -22 -189 -13 -5 -38 -6 -55 -4 l-33 5 0 189 0
189 -55 0 -55 0 0 -245 0 -245 -536 0 -537 0 6 40 c15 111 121 258 204 284 22
7 22 6 25 -116 l3 -123 40 0 40 0 6 160 c4 88 7 190 8 228 l1 67 49 0 c35 0
51 -4 55 -16 3 -9 6 -114 6 -235 0 -206 1 -219 18 -219 18 0 19 14 25 178 6
194 20 310 45 387 l17 50 65 7 c102 10 492 0 630 -16z"/>
<path d="M3940 4449 l0 -102 106 7 c153 10 194 32 194 104 0 68 -53 91 -212
92 l-88 0 0 -101z"/>
<path d="M6613 4310 c-28 -17 -53 -47 -53 -64 0 -3 63 -6 140 -6 77 0 140 3
140 8 0 16 -33 53 -60 67 -42 22 -128 19 -167 -5z"/>
<path d="M8350 4292 c-67 -33 -93 -128 -56 -199 33 -65 150 -94 225 -55 100
50 106 186 12 249 -43 29 -129 31 -181 5z"/>
<path d="M3360 2570 l0 -890 200 0 200 0 -2 888 -3 887 -197 3 -198 2 0 -890z"/>
<path d="M3910 3185 l0 -275 175 0 175 0 0 -615 0 -615 200 0 200 0 0 615 0
615 175 0 175 0 0 275 0 275 -550 0 -550 0 0 -275z"/>
<path d="M5435 3448 c-6 -16 -395 -1748 -395 -1760 0 -7 389 -13 391 -5 0 1
10 61 22 132 l23 130 155 3 156 2 22 -132 c12 -73 23 -134 25 -135 2 -2 91 -2
198 -1 l194 3 -182 815 c-101 448 -190 848 -199 888 l-16 72 -195 0 c-146 0
-196 -3 -199 -12z m295 -1165 c0 -10 -27 -13 -101 -13 l-101 0 5 28 c3 15 24
144 47 287 22 143 44 267 47 275 5 12 102 -532 103 -577z"/>
<path d="M6380 2570 l0 -890 400 0 400 0 0 275 0 275 -198 0 -199 0 -6 368
c-4 202 -7 478 -7 615 l0 247 -195 0 -195 0 0 -890z"/>
<path d="M7330 2570 l0 -890 195 0 195 0 0 890 0 890 -195 0 -195 0 0 -890z"/>
<path d="M8266 3443 c-2 -10 -91 -403 -196 -873 -105 -470 -193 -863 -196
-872 -5 -17 9 -18 194 -18 l199 0 12 73 c6 39 16 100 22 135 l11 62 154 0 c85
0 154 -1 155 -2 0 -2 10 -61 22 -133 l23 -130 197 -3 c108 -1 197 1 197 5 0 5
-90 404 -198 888 l-198 880 -196 3 c-181 2 -197 1 -202 -15z m253 -873 c27
-162 47 -296 46 -298 -1 -1 -47 -1 -102 0 l-99 3 50 305 c27 168 51 300 53
294 2 -5 25 -142 52 -304z"/>
<path d="M2502 3252 c-9 -6 -16 -68 -23 -221 -6 -117 -8 -215 -4 -219 11 -11
84 -7 97 6 8 8 13 73 16 206 4 187 4 194 -17 215 -22 22 -47 26 -69 13z"/>
<path d="M2640 3016 c0 -123 4 -217 9 -221 6 -3 28 -3 50 1 l41 7 0 213 0 214
-50 0 -50 0 0 -214z"/>
<path d="M2828 3140 l-28 -28 0 -176 c0 -97 4 -176 9 -176 13 0 19 21 27 91 5
47 11 63 24 66 40 11 54 166 20 221 -11 17 -21 31 -22 31 -2 -1 -15 -14 -30
-29z"/>
<path d="M1655 1778 c-4 -23 -4 -133 0 -245 l7 -203 49 0 49 0 0 239 0 239
-22 6 c-13 3 -35 6 -50 6 -23 0 -27 -5 -33 -42z"/>
<path d="M2470 5780 l0 -50 50 0 50 0 0 50 0 50 -50 0 -50 0 0 -50z"/>
<path d="M2740 5735 l0 -45 45 0 c45 0 45 0 45 34 0 40 -1 41 -52 50 l-38 7 0
-46z"/>
</g>
</svg>
